PathFileType	4	(X/Y/Z)	s11c0402.trc
DataRate	CameraRate	NumFrames	NumMarkers	Units	OrigDataRate	OrigDataStartFrame	OrigNumFrames
200	200	4	48	mm	200	1250	2000
Frame#	Time	racr			lacr			c7			jug			rlel			rdr			llel			ldr			s2			lic			ric			lasi			rasi			rpsi			lpsi			rgt			lgt			rth1			rth2			rth3			rth4			rlfc			rmfc			rsh1			rsh2			rsh3			rsh4			rlmal			rcal			rtoe			rmt5			lth1			lth2			lth4			lth3			llfc			lmfc			llmal			lcal			lmt5			lsh1			lsh2			lsh3			lsh4			ltoe			SBIKE			LBIKE			RBIKE			
		X1	Y1	Z1	X2	Y2	Z2	X3	Y3	Z3	X4	Y4	Z4	X5	Y5	Z5	X6	Y6	Z6	X7	Y7	Z7	X8	Y8	Z8	X9	Y9	Z9	X10	Y10	Z10	X11	Y11	Z11	X12	Y12	Z12	X13	Y13	Z13	X14	Y14	Z14	X15	Y15	Z15	X16	Y16	Z16	X17	Y17	Z17	X18	Y18	Z18	X19	Y19	Z19	X20	Y20	Z20	X21	Y21	Z21	X22	Y22	Z22	X23	Y23	Z23	X24	Y24	Z24	X25	Y25	Z25	X26	Y26	Z26	X27	Y27	Z27	X28	Y28	Z28	X29	Y29	Z29	X30	Y30	Z30	X31	Y31	Z31	X32	Y32	Z32	X33	Y33	Z33	X34	Y34	Z34	X35	Y35	Z35	X36	Y36	Z36	X37	Y37	Z37	X38	Y38	Z38	X39	Y39	Z39	X40	Y40	Z40	X41	Y41	Z41	X42	Y42	Z42	X43	Y43	Z43	X44	Y44	Z44	X45	Y45	Z45	X46	Y46	Z46	X47	Y47	Z47	X48	Y48	Z48	
1250	6.2500	831.300225	1309.395525	-82.065359	823.214244	1311.635528	-429.751878	811.609971	1413.817106	-255.721207	781.270860	1234.156043	-255.363818	616.930662	1139.838486	40.912507	772.896799	966.312319	-69.946584	580.446129	1162.762536	-595.939709	758.839357	953.626168	-477.657455	192.660254	1290.557778	-240.653541	396.623321	1238.359270	-452.682391	423.993613	1261.451563	-53.996328	412.228009	1163.173036	-417.569547	430.638568	1203.963193	-102.816644	255.516072	1359.280902	-198.085755	247.167988	1344.050722	-291.539209	370.994445	1154.475995	-27.074333	259.478967	1130.698869	-441.083909	481.244143	1066.991195	-28.916706	561.734682	1031.684442	-43.792764	613.398454	960.905039	-55.522284	580.448381	1058.741798	-59.623002	689.420048	889.908938	-74.004451	684.053973	870.686349	-207.522911	571.546386	786.813249	-63.703649	515.608673	722.790348	-83.793705	433.603483	690.959194	-85.376687	532.062007	704.279257	-114.171830	312.865977	621.918446	-97.205509	261.237207	666.440813	-144.809863	394.151675	411.274022	-153.833597	335.837359	453.107432	-81.898248	283.597628	990.198554	-459.566682	311.316967	909.556104	-453.630321	348.343550	911.006628	-450.394471	294.016462	822.174508	-442.049882	307.375159	683.775371	-414.548813	313.427876	674.544161	-283.262668	140.678066	287.626502	-406.391864	78.051790	279.929996	-375.604032	234.386126	146.600916	-453.136849	250.841874	572.102308	-437.517143	243.820371	486.931730	-426.421624	194.908438	413.621532	-423.924148	275.059215	478.714817	-405.724916	332.566255	122.403004	-388.639520	-215.026951	953.684222	-257.330544	-17.824597	80.815912	-460.850915	-17.767626	80.891513	-62.071512	
1251	6.2550	830.426881	1309.004244	-80.015140	824.087694	1312.514277	-427.529999	811.123067	1414.206948	-253.401984	781.242054	1234.241308	-253.351978	615.852031	1139.240150	41.840131	772.509397	966.588607	-69.985431	582.931138	1162.795750	-595.057488	760.693698	953.604397	-478.413348	192.309799	1292.211377	-242.098246	398.178431	1239.595048	-452.327464	422.589449	1263.008448	-53.861063	413.364249	1164.643546	-416.845053	429.613676	1205.818448	-103.247872	255.681240	1360.895467	-199.657454	247.157925	1345.783619	-292.793996	370.716530	1157.335490	-27.548149	259.793694	1132.396361	-441.629916	481.704468	1069.640762	-29.821093	562.445903	1035.365127	-44.699885	615.466655	965.435735	-57.417335	582.449969	1063.977341	-61.801917	692.911434	895.619660	-76.684723	687.055036	877.402357	-211.089239	577.696424	790.813681	-65.393243	522.861393	725.509563	-85.118912	441.432739	692.328121	-86.534820	539.311633	707.629940	-115.988074	319.737607	620.363397	-97.795930	266.677709	663.495178	-145.304936	405.716425	411.590201	-154.276923	346.658237	452.126610	-82.182100	282.133681	992.462067	-460.320933	309.140369	911.588347	-454.623324	346.151284	912.795626	-451.714233	291.135483	824.201495	-442.909424	304.273880	685.460844	-415.820450	312.121709	676.207044	-284.705530	133.076340	291.626192	-406.494806	70.603734	284.957503	-375.313494	224.111657	148.562331	-453.156710	246.461367	574.513848	-438.334330	238.552038	489.441233	-427.280567	188.729383	416.655400	-424.433064	269.839240	480.744628	-406.706833	322.116037	122.927865	-388.970106	-215.056539	953.684887	-257.315266	-17.817458	80.824065	-460.866544	-17.761935	80.896258	-62.084411	
1252	6.2600	829.597399	1308.701995	-78.156237	824.853210	1313.236411	-425.273562	810.665512	1414.523896	-251.121502	781.121922	1234.269037	-251.250289	614.858934	1138.571206	42.787354	772.257149	967.000628	-70.195982	585.189512	1162.930832	-594.158026	762.457222	953.379121	-479.764556	192.002630	1294.179057	-243.070830	399.695506	1241.110578	-452.015613	421.303098	1264.780007	-53.671335	414.453567	1166.055461	-416.188802	428.555624	1207.073041	-102.956001	255.252570	1362.884530	-200.658358	247.185651	1347.795664	-294.056250	370.487811	1159.993048	-27.794495	260.211665	1134.474596	-442.343170	481.963789	1072.357736	-30.752779	561.248782	1039.077859	-44.608721	616.797441	969.671598	-58.644929	584.613752	1069.244139	-64.046852	695.353979	900.973571	-79.449649	689.379183	883.222960	-214.204330	583.280841	794.259420	-67.185447	529.960626	727.881991	-86.389330	448.990302	692.942828	-87.830723	546.345665	710.601560	-117.881197	326.153470	618.041558	-98.438536	271.780678	659.781652	-145.886703	417.051480	411.442358	-154.687139	357.124390	450.690492	-82.483938	281.034842	994.903891	-460.999680	307.486908	913.858206	-455.631542	344.552491	914.801780	-453.086729	288.966486	826.435122	-443.793052	302.109282	687.570315	-417.433879	312.121462	677.620975	-286.534109	125.802591	296.209578	-406.711202	63.372853	290.588230	-375.181049	214.202581	151.240353	-453.161546	243.273152	577.234906	-439.504134	234.155113	492.357172	-428.358548	183.326221	420.264360	-425.114375	265.532503	483.171964	-407.899324	311.908757	124.184129	-389.143333	-215.077140	953.713906	-257.324533	-17.788711	80.769701	-460.929059	-17.757465	80.919758	-62.084128	
1253	6.2650	828.824537	1308.484137	-76.455061	825.536548	1313.835913	-423.003857	810.198486	1414.552773	-248.972300	780.750001	1234.071460	-249.409024	613.966640	1137.849020	43.729120	772.056684	967.196755	-70.291617	587.143126	1163.313052	-593.307812	763.980313	952.893782	-481.468762	192.517067	1296.565926	-244.855367	401.124210	1242.582009	-451.813981	420.282211	1266.802683	-53.510231	415.330152	1167.546212	-415.640027	427.943819	1210.296012	-101.414908	254.718951	1365.195660	-201.409905	247.309319	1350.106485	-295.062326	370.193690	1162.908359	-27.820813	260.623868	1136.743653	-443.252416	482.108137	1075.116758	-31.634826	563.033257	1042.324964	-46.357470	617.673966	973.396713	-60.161950	585.783435	1073.554440	-65.501355	696.945837	906.061403	-81.460924	690.854746	888.466142	-216.346550	587.493719	796.775793	-69.091923	535.523090	728.903475	-88.063121	455.329107	692.472574	-89.041913	554.336047	712.622385	-118.841682	332.082527	615.003882	-99.187267	276.503312	655.215385	-146.439819	428.237284	410.789456	-154.875486	367.420927	448.629342	-82.794671	280.358307	997.493576	-461.601680	306.544996	916.316548	-456.621277	343.604846	917.078612	-454.496559	287.766774	828.949110	-444.905961	301.070647	689.980296	-419.392982	313.376405	678.991368	-288.790991	118.847369	301.340075	-406.972139	56.531433	296.803399	-375.150293	204.533745	154.606248	-453.075644	241.236803	580.344109	-440.904540	230.736162	495.582317	-429.571159	178.664761	424.432362	-425.950657	262.024451	485.891751	-409.209769	301.843035	126.060508	-389.253730	-215.090128	953.758556	-257.315327	-17.789845	80.796199	-460.935063	-17.749475	80.993706	-62.104104	
